<svg width="106" height="116" viewBox="0 0 106 116" fill="none" xmlns="http://www.w3.org/2000/svg">
<path d="M79.5652 90H26.4297V56.8093H79.515L79.5652 90ZM52.9388 59.472C48.4035 59.4768 43.9396 60.6156 39.9432 62.7872C35.9469 64.9588 32.5417 68.0962 30.0301 71.9207C29.6978 72.3092 29.5149 72.8059 29.5149 73.3199C29.5149 73.8338 29.6978 74.3306 30.0301 74.7191C32.5579 78.526 35.9695 81.6464 39.9656 83.8067C43.9617 85.967 48.4203 87.1011 52.95 87.1094C57.4798 87.1178 61.9425 86.0002 65.9463 83.8547C69.9502 81.7092 73.373 78.6014 75.9145 74.8039C76.277 74.3934 76.4774 73.862 76.4774 73.3114C76.4774 72.7607 76.277 72.2293 75.9145 71.8189C73.38 68.01 69.9577 64.8924 65.9503 62.7418C61.9429 60.5912 57.474 59.474 52.9388 59.489V59.472Z" fill="white"/>
<path d="M53.0896 53.7055C48.5833 53.6964 44.1464 52.5807 40.1594 50.4539C36.1723 48.3271 32.754 45.2527 30.1976 41.4944C29.7714 41.0352 29.5341 40.4286 29.5341 39.7984C29.5341 39.1681 29.7714 38.5616 30.1976 38.1024C32.7526 34.3508 36.1732 31.2875 40.1623 29.1786C44.1514 27.0696 48.5885 25.9786 53.0884 26.0003C57.5883 26.022 62.015 27.1558 65.9841 29.3032C69.9532 31.4507 73.3447 34.5468 75.8643 38.3228C76.2256 38.7305 76.4254 39.259 76.4254 39.8068C76.4254 40.3546 76.2256 40.8831 75.8643 41.2908C73.3478 45.0765 69.9593 48.185 65.9914 50.348C62.0236 52.5109 57.5955 53.6633 53.0896 53.7055ZM63.0033 39.9679C63.0499 37.9459 62.5004 35.9556 61.4251 34.2512C60.3498 32.5469 58.7973 31.2057 56.9659 30.399C55.1345 29.5923 53.1073 29.3565 51.143 29.722C49.1788 30.0874 47.3666 31.0374 45.9379 32.4506C44.5091 33.8638 43.5287 35.6762 43.1216 37.6563C42.7145 39.6365 42.8994 41.6946 43.6525 43.5678C44.4056 45.4411 45.6928 47.0447 47.3498 48.1737C49.0069 49.3027 50.9585 49.906 52.9556 49.9065C55.5803 49.9072 58.1011 48.8678 59.9788 47.0105C61.8565 45.1532 62.942 42.6254 63.0033 39.9679Z" fill="white"/>
<path d="M52.9886 83.3344C51.0413 83.301 49.1471 82.6854 47.5442 81.565C45.9412 80.4446 44.701 78.8694 43.9793 77.0373C43.2576 75.2052 43.0866 73.198 43.4879 71.2678C43.8892 69.3376 44.8448 67.5705 46.2347 66.1887C47.6246 64.8069 49.3867 63.8719 51.2997 63.5013C53.2126 63.1307 55.1911 63.3409 56.9864 64.1056C58.7817 64.8703 60.3139 66.1553 61.3903 67.7992C62.4667 69.4431 63.0394 71.3725 63.0363 73.345C63.0321 74.6714 62.7679 75.9837 62.2592 77.2059C61.7504 78.4281 61.0072 79.5359 60.0726 80.4651C59.138 81.3943 58.0306 82.1263 56.8146 82.6189C55.5986 83.1114 54.2982 83.3546 52.9886 83.3344Z" fill="white"/>
</svg>
